<svg xmlns="http://www.w3.org/2000/svg" xmlns:xlink="http://www.w3.org/1999/xlink" width="1920" zoomAndPan="magnify" viewBox="0 0 1440 809.999993" height="1080" preserveAspectRatio="xMidYMid meet" version="1.0"><defs><filter x="0%" y="0%" width="100%" height="100%" id="72b6b97844"><feColorMatrix values="0 0 0 0 1 0 0 0 0 1 0 0 0 0 1 0 0 0 1 0" color-interpolation-filters="sRGB"/></filter><g/><mask id="c619d19310"><g filter="url(#72b6b97844)"><rect x="-144" width="1728" fill="#000000" y="-80.999999" height="971.999992" fill-opacity="0.52"/></g></mask><clipPath id="c1d4a76ff7"><path d="M 0.078125 0.28125 L 1430.960938 0.28125 L 1430.960938 763.71875 L 0.078125 763.71875 Z M 0.078125 0.28125 " clip-rule="nonzero"/></clipPath><clipPath id="35ce364e42"><rect x="0" width="1431" y="0" height="764"/></clipPath><clipPath id="6d7c75a1d9"><rect x="0" width="1431" y="0" height="764"/></clipPath></defs><g mask="url(#c619d19310)"><g transform="matrix(1, 0, 0, 1, 4, 23)"><g clip-path="url(#6d7c75a1d9)"><g clip-path="url(#c1d4a76ff7)"><g transform="matrix(1, 0, 0, 1, 0, 0.00000000000003908)"><g clip-path="url(#35ce364e42)"><g fill="#000000" fill-opacity="1"><g transform="translate(13.938172, 660.925292)"><g><path d="M 197.714844 -517.511719 L 197.714844 -443.941406 L 185.820312 -443.941406 L 185.820312 -455.835938 L 357.566406 -455.835938 L 453.933594 -358.785156 L 453.933594 -85.15625 L 357.566406 11.890625 L 85.105469 11.890625 L -11.257812 -85.15625 L -11.257812 -528.777344 L 93.199219 -633.234375 L 207.277344 -519.910156 L 193.433594 -508.375 L 185.820312 -517.511719 Z M 173.929688 -523.082031 L 182.015625 -529.816406 L 189.628906 -520.683594 L 181.246094 -512.246094 L 84.847656 -608.011719 L 93.226562 -616.445312 L 101.636719 -608.039062 L 9.042969 -515.445312 L 0.632812 -523.851562 L 12.527344 -523.851562 L 12.527344 -90.058594 L 0.632812 -90.058594 L 9.074219 -98.4375 L 98.496094 -8.378906 L 90.058594 0 L 90.058594 -11.890625 L 352.617188 -11.890625 L 352.617188 0 L 344.179688 -8.378906 L 433.601562 -98.4375 L 442.039062 -90.058594 L 430.148438 -90.058594 L 430.148438 -353.886719 L 442.039062 -353.886719 L 433.601562 -345.507812 L 344.179688 -435.5625 L 352.617188 -443.941406 L 352.617188 -432.050781 L 173.929688 -432.050781 Z M 173.929688 -523.082031 "/></g></g></g><g fill="#000000" fill-opacity="1"><g transform="translate(499.703962, 660.925292)"><g><path d="M -11.890625 -90.664062 L -12.539062 -358.847656 L 85.8125 -455.835938 L 359.371094 -455.835938 L 457.738281 -359.519531 L 457.738281 -256.949219 L 370.476562 -171.007812 L 362.128906 -179.480469 L 370.539062 -187.886719 L 465.257812 -93.171875 L 358.765625 11.890625 L 85.765625 11.890625 L -11.878906 -85.753906 Z M 11.890625 -90.71875 L 0 -90.691406 L 8.410156 -99.101562 L 99.101562 -8.410156 L 90.691406 0 L 90.691406 -11.890625 L 353.886719 -11.890625 L 353.886719 0 L 345.535156 -8.464844 L 440.03125 -101.691406 L 448.382812 -93.226562 L 439.972656 -84.820312 L 345.25 -179.542969 L 437.5 -270.398438 L 445.84375 -261.925781 L 433.953125 -261.925781 L 433.953125 -354.519531 L 445.84375 -354.519531 L 437.527344 -346.023438 L 346.199219 -435.445312 L 354.519531 -443.941406 L 354.519531 -432.050781 L 90.691406 -432.050781 L 90.691406 -443.941406 L 99.039062 -435.476562 L 7.714844 -345.417969 L -0.632812 -353.886719 L 11.257812 -353.914062 Z M 11.890625 -90.71875 "/></g></g></g><g fill="#000000" fill-opacity="1"><g transform="translate(989.908904, 660.925292)"><g><path d="M 198.035156 -78.476562 L 108.300781 11.257812 L 80.691406 11.257812 L -12.527344 -81.960938 L -12.527344 -531.925781 L 93.804688 -638.972656 L 201.519531 -531.972656 L 201.519531 -81.960938 Z M 181.21875 -95.292969 L 189.628906 -86.886719 L 177.734375 -86.886719 L 177.734375 -527.023438 L 189.628906 -527.023438 L 181.246094 -518.585938 L 85.480469 -613.71875 L 93.863281 -622.15625 L 102.296875 -613.773438 L 7.800781 -518.644531 L -0.632812 -527.023438 L 11.257812 -527.023438 L 11.257812 -86.886719 L -0.632812 -86.886719 L 7.773438 -95.292969 L 94.027344 -9.042969 L 85.617188 -0.632812 L 85.617188 -12.527344 L 103.375 -12.527344 L 103.375 -0.632812 L 94.96875 -9.042969 Z M 181.21875 -95.292969 "/></g></g></g><g fill="#000000" fill-opacity="1"><g transform="translate(1227.087606, 660.925292)"><g><path d="M 198.035156 -78.476562 L 108.300781 11.257812 L 80.691406 11.257812 L -12.527344 -81.960938 L -12.527344 -531.925781 L 93.804688 -638.972656 L 201.519531 -531.972656 L 201.519531 -81.960938 Z M 181.21875 -95.292969 L 189.628906 -86.886719 L 177.734375 -86.886719 L 177.734375 -527.023438 L 189.628906 -527.023438 L 181.246094 -518.585938 L 85.480469 -613.71875 L 93.863281 -622.15625 L 102.296875 -613.773438 L 7.800781 -518.644531 L -0.632812 -527.023438 L 11.257812 -527.023438 L 11.257812 -86.886719 L -0.632812 -86.886719 L 7.773438 -95.292969 L 94.027344 -9.042969 L 85.617188 -0.632812 L 85.617188 -12.527344 L 103.375 -12.527344 L 103.375 -0.632812 L 94.96875 -9.042969 Z M 181.21875 -95.292969 "/></g></g></g></g></g></g></g></g></g></svg>